<svg xmlns="http://www.w3.org/2000/svg" version="1.1" xmlns:xlink="http://www.w3.org/1999/xlink" xmlns:svgjs="http://svgjs.dev/svgjs" width="2000" height="1500" viewBox="0 0 2000 1500"><rect width="2000" height="1500" fill="#ffffff"></rect><g transform="matrix(0.75,0,0,0.75,249.090909090909,353.7316976227253)"><svg viewBox="0 0 396 209" data-background-color="#ffffff" preserveAspectRatio="xMidYMid meet" height="1055" width="2000" xmlns="http://www.w3.org/2000/svg" xmlns:xlink="http://www.w3.org/1999/xlink"><g id="tight-bounds" transform="matrix(1,0,0,1,0.2400000000000091,0.16992125984253903)"><svg viewBox="0 0 395.52 208.66015748031492" height="208.66015748031492" width="395.52"><g><svg viewBox="0 0 395.52 208.66015748031492" height="208.66015748031492" width="395.52"><g><svg viewBox="0 0 395.52 208.66015748031492" height="208.66015748031492" width="395.52"><g id="textblocktransform"><svg viewBox="0 0 395.52 208.66015748031492" height="208.66015748031492" width="395.52" id="textblock"><g><svg viewBox="0 0 395.52 208.66015748031492" height="208.66015748031492" width="395.52"><g transform="matrix(1,0,0,1,0,0)"><svg width="395.52" viewBox="3.5 -36.85 69.85 36.85" height="208.66015748031492" data-palette-color="#000000"><path d="M12.85 0L3.5 0 3.5-36.85 28.6-36.85 34.2-31.3 34.2-18.1 30-13.9 35.6 0 26.2 0 21.35-12.55 12.85-12.55 12.85 0ZM12.85-29.75L12.85-19.65 23.35-19.65 25.1-21.4 25.1-28 23.35-29.75 12.85-29.75ZM46.45 0L36.55 0 47.35-36.85 62.55-36.85 73.35 0 63.45 0 61.6-7.35 48.3-7.35 46.45 0ZM54.05-29.8L50.15-14.55 59.75-14.55 55.85-29.8 54.05-29.8Z" opacity="1" transform="matrix(1,0,0,1,0,0)" fill="#000000" class="wordmark-text-0" data-fill-palette-color="primary" id="text-0"></path></svg></g></svg></g></svg></g></svg></g></svg></g><defs></defs></svg><rect width="395.52" height="208.66015748031492" fill="none" stroke="none" visibility="hidden"></rect></g></svg></g></svg>